<svg width="900" height="200" viewBox="0 0 900 200" xmlns="http://www.w3.org/2000/svg">
  <defs>
    <radialGradient id="nb1" cx="80%" cy="20%" r="55%">
      <stop offset="0%" stop-color="#3d2d8e" stop-opacity="0.85"/>
      <stop offset="100%" stop-color="#07050f" stop-opacity="0"/>
    </radialGradient>
    <radialGradient id="nb2" cx="10%" cy="85%" r="45%">
      <stop offset="0%" stop-color="#0f4d3a" stop-opacity="0.6"/>
      <stop offset="100%" stop-color="#07050f" stop-opacity="0"/>
    </radialGradient>
    <radialGradient id="nb3" cx="50%" cy="50%" r="60%">
      <stop offset="0%" stop-color="#1a0a3a" stop-opacity="0.5"/>
      <stop offset="100%" stop-color="#07050f" stop-opacity="0"/>
    </radialGradient>
    <radialGradient id="av" cx="50%" cy="40%" r="60%">
      <stop offset="0%" stop-color="#7F77DD"/>
      <stop offset="100%" stop-color="#1D9E75"/>
    </radialGradient>
    <radialGradient id="avglow" cx="50%" cy="50%" r="50%">
      <stop offset="0%" stop-color="#534AB7" stop-opacity="0.4"/>
      <stop offset="100%" stop-color="#534AB7" stop-opacity="0"/>
    </radialGradient>
  </defs>

  <!-- background -->
  <rect width="900" height="200" fill="#07050f"/>
  <rect width="900" height="200" fill="url(#nb1)"/>
  <rect width="900" height="200" fill="url(#nb2)"/>
  <rect width="900" height="200" fill="url(#nb3)"/>

  <!-- subtle grid -->
  <line x1="0" y1="50" x2="900" y2="50" stroke="#12082a" stroke-width="0.6"/>
  <line x1="0" y1="100" x2="900" y2="100" stroke="#12082a" stroke-width="0.6"/>
  <line x1="0" y1="150" x2="900" y2="150" stroke="#12082a" stroke-width="0.6"/>
  <line x1="150" y1="0" x2="150" y2="200" stroke="#12082a" stroke-width="0.6"/>
  <line x1="300" y1="0" x2="300" y2="200" stroke="#12082a" stroke-width="0.6"/>
  <line x1="450" y1="0" x2="450" y2="200" stroke="#12082a" stroke-width="0.6"/>
  <line x1="600" y1="0" x2="600" y2="200" stroke="#12082a" stroke-width="0.6"/>
  <line x1="750" y1="0" x2="750" y2="200" stroke="#12082a" stroke-width="0.6"/>

  <!-- stars - large -->
  <circle cx="52" cy="16" r="1.4" fill="#d8d0ff" opacity="0.95"/>
  <circle cx="280" cy="22" r="1.6" fill="#ffffff" opacity="0.9"/>
  <circle cx="510" cy="14" r="1.3" fill="#c0f0d8" opacity="0.85"/>
  <circle cx="720" cy="30" r="1.5" fill="#d8d0ff" opacity="0.9"/>
  <circle cx="850" cy="18" r="1.2" fill="#ffffff" opacity="0.8"/>
  <circle cx="130" cy="42" r="1.4" fill="#c0f0d8" opacity="0.85"/>
  <circle cx="390" cy="55" r="1.6" fill="#d8d0ff" opacity="0.9"/>
  <circle cx="640" cy="48" r="1.3" fill="#ffffff" opacity="0.8"/>
  <circle cx="820" cy="62" r="1.5" fill="#c0f0d8" opacity="0.85"/>
  <circle cx="30" cy="170" r="1.3" fill="#d8d0ff" opacity="0.8"/>
  <circle cx="480" cy="180" r="1.4" fill="#ffffff" opacity="0.75"/>
  <circle cx="700" cy="165" r="1.6" fill="#c0f0d8" opacity="0.85"/>
  <circle cx="870" cy="175" r="1.2" fill="#d8d0ff" opacity="0.8"/>

  <!-- stars - medium -->
  <circle cx="88" cy="35" r="0.9" fill="#e8e0ff" opacity="0.7"/>
  <circle cx="175" cy="20" r="0.8" fill="#a0f0d0" opacity="0.75"/>
  <circle cx="230" cy="48" r="1.0" fill="#e8e0ff" opacity="0.65"/>
  <circle cx="340" cy="18" r="0.9" fill="#ffffff" opacity="0.7"/>
  <circle cx="420" cy="35" r="0.8" fill="#a0f0d0" opacity="0.65"/>
  <circle cx="560" cy="28" r="1.0" fill="#e8e0ff" opacity="0.7"/>
  <circle cx="660" cy="16" r="0.9" fill="#ffffff" opacity="0.75"/>
  <circle cx="780" cy="45" r="0.8" fill="#a0f0d0" opacity="0.65"/>
  <circle cx="910" cy="32" r="1.0" fill="#e8e0ff" opacity="0.7"/>
  <circle cx="65" cy="140" r="0.9" fill="#ffffff" opacity="0.55"/>
  <circle cx="200" cy="160" r="0.8" fill="#a0f0d0" opacity="0.6"/>
  <circle cx="360" cy="175" r="1.0" fill="#e8e0ff" opacity="0.55"/>
  <circle cx="540" cy="155" r="0.9" fill="#ffffff" opacity="0.6"/>
  <circle cx="760" cy="185" r="0.8" fill="#a0f0d0" opacity="0.55"/>
  <circle cx="890" cy="148" r="1.0" fill="#e8e0ff" opacity="0.6"/>

  <!-- stars - small/dim -->
  <circle cx="110" cy="70" r="0.6" fill="#c8c0ff" opacity="0.5"/>
  <circle cx="250" cy="80" r="0.5" fill="#ffffff" opacity="0.45"/>
  <circle cx="370" cy="65" r="0.6" fill="#a0f0d0" opacity="0.5"/>
  <circle cx="490" cy="88" r="0.5" fill="#c8c0ff" opacity="0.45"/>
  <circle cx="610" cy="72" r="0.6" fill="#ffffff" opacity="0.5"/>
  <circle cx="740" cy="84" r="0.5" fill="#a0f0d0" opacity="0.45"/>
  <circle cx="860" cy="68" r="0.6" fill="#c8c0ff" opacity="0.5"/>
  <circle cx="45" cy="115" r="0.5" fill="#ffffff" opacity="0.4"/>
  <circle cx="190" cy="125" r="0.6" fill="#a0f0d0" opacity="0.45"/>
  <circle cx="320" cy="108" r="0.5" fill="#c8c0ff" opacity="0.4"/>
  <circle cx="580" cy="120" r="0.6" fill="#ffffff" opacity="0.45"/>
  <circle cx="820" cy="112" r="0.5" fill="#a0f0d0" opacity="0.4"/>

  <!-- avatar glow -->
  <circle cx="82" cy="100" r="52" fill="url(#avglow)"/>
  <!-- avatar circle -->
  <circle cx="82" cy="100" r="36" fill="url(#av)"/>
  <circle cx="82" cy="100" r="36" fill="none" stroke="#7F77DD" stroke-width="1.2" opacity="0.7"/>
  <!-- avatar ring outer -->
  <circle cx="82" cy="100" r="42" fill="none" stroke="#534AB7" stroke-width="0.5" opacity="0.35" stroke-dasharray="4 3"/>
  <text x="82" y="107" text-anchor="middle" font-family="Arial Black, sans-serif" font-size="20" font-weight="900" fill="#ffffff">UK</text>

  <!-- name -->
  <text x="142" y="82" font-family="Arial Black, sans-serif" font-size="32" font-weight="900" fill="#e8e0ff" letter-spacing="-0.5">Uday</text>
  <text x="268" y="82" font-family="Arial Black, sans-serif" font-size="32" font-weight="900" fill="#7F77DD" letter-spacing="-0.5">Khanna</text>

  <!-- role -->
  <text x="143" y="106" font-family="Courier New, monospace" font-size="11" fill="#6655aa" letter-spacing="2">CS UNDERGRAD · FULL-STACK DEV · COMPETITIVE PROGRAMMER</text>

  <!-- typing line -->
  <text x="143" y="128" font-family="Courier New, monospace" font-size="11" fill="#5DCAA5">&gt; while(true) { learn(); build(); repeat(); } ▋</text>

  <!-- stat pills -->
  <rect x="143" y="142" width="100" height="22" rx="11" fill="#1a0d35" stroke="#3d2d6e" stroke-width="0.8"/>
  <text x="193" y="157" text-anchor="middle" font-family="Courier New, monospace" font-size="10" fill="#AFA9EC">📍 Delhi, India</text>

  <rect x="254" y="142" width="80" height="22" rx="11" fill="#0a2a1e" stroke="#0F6E56" stroke-width="0.8"/>
  <text x="294" y="157" text-anchor="middle" font-family="Courier New, monospace" font-size="10" fill="#5DCAA5">400+ CP</text>

  <rect x="345" y="142" width="100" height="22" rx="11" fill="#1e1408" stroke="#854F0B" stroke-width="0.8"/>
  <text x="395" y="157" text-anchor="middle" font-family="Courier New, monospace" font-size="10" fill="#EF9F27">Top 1.5K GBC</text>

  <rect x="456" y="142" width="96" height="22" rx="11" fill="#1e0c06" stroke="#993C1D" stroke-width="0.8"/>
  <text x="504" y="157" text-anchor="middle" font-family="Courier New, monospace" font-size="10" fill="#F0997B">2nd · IIT Delhi</text>

  <!-- right side decoration — constellation dots -->
  <circle cx="700" cy="90" r="3" fill="#534AB7" opacity="0.6"/>
  <circle cx="740" cy="70" r="2" fill="#7F77DD" opacity="0.5"/>
  <circle cx="780" cy="100" r="2.5" fill="#1D9E75" opacity="0.5"/>
  <circle cx="760" cy="130" r="2" fill="#534AB7" opacity="0.4"/>
  <circle cx="800" cy="115" r="3" fill="#7F77DD" opacity="0.5"/>
  <circle cx="830" cy="80" r="2" fill="#1D9E75" opacity="0.4"/>
  <circle cx="860" cy="105" r="2.5" fill="#534AB7" opacity="0.45"/>
  <line x1="700" y1="90" x2="740" y2="70" stroke="#534AB7" stroke-width="0.5" opacity="0.25"/>
  <line x1="740" y1="70" x2="780" y2="100" stroke="#7F77DD" stroke-width="0.5" opacity="0.25"/>
  <line x1="780" y1="100" x2="760" y2="130" stroke="#534AB7" stroke-width="0.5" opacity="0.25"/>
  <line x1="780" y1="100" x2="800" y2="115" stroke="#1D9E75" stroke-width="0.5" opacity="0.25"/>
  <line x1="800" y1="115" x2="830" y2="80" stroke="#7F77DD" stroke-width="0.5" opacity="0.25"/>
  <line x1="830" y1="80" x2="860" y2="105" stroke="#534AB7" stroke-width="0.5" opacity="0.25"/>
</svg>
